<mxfile host="app.diagrams.net" modified="2022-03-02T08:35:30.930Z" agent="5.0 (Windows NT 10.0; Win64; x64) AppleWebKit/537.36 (KHTML, like Gecko) Chrome/98.0.4758.102 Safari/537.36" etag="ByhJhm4mq1XRXOA5uI5c" version="16.5.3" type="github">
  <diagram id="sOSbBrS7TzUkVfi462fL" name="Page-1">
    <mxGraphModel dx="3008" dy="831" grid="1" gridSize="10" guides="1" tooltips="1" connect="1" arrows="1" fold="1" page="1" pageScale="1" pageWidth="827" pageHeight="1169" math="0" shadow="0">
      <root>
        <mxCell id="0" />
        <mxCell id="1" parent="0" />
        <mxCell id="KVX-xqFQKd0io17M2iUF-1" value="&lt;p style=&quot;margin: 0px ; margin-top: 4px ; text-align: center&quot;&gt;&lt;b&gt;Hotel&lt;/b&gt;&lt;/p&gt;&lt;hr size=&quot;1&quot;&gt;&lt;p style=&quot;margin: 0px ; margin-left: 4px&quot;&gt;- _reservationBook : ReservationBook {readonly}&lt;/p&gt;&lt;p style=&quot;margin: 0px ; margin-left: 4px&quot;&gt;+ Name : string&lt;/p&gt;&lt;hr size=&quot;1&quot;&gt;&lt;p style=&quot;margin: 0px ; margin-left: 4px&quot;&gt;+ GetReservations() : IEnumerable&amp;lt;Reservation&amp;gt;&lt;/p&gt;&lt;p style=&quot;margin: 0px ; margin-left: 4px&quot;&gt;+ MakeReservation(Reservation reservation) : void&lt;/p&gt;" style="verticalAlign=top;align=left;overflow=fill;fontSize=12;fontFamily=Helvetica;html=1;" parent="1" vertex="1">
          <mxGeometry x="100" y="200" width="410" height="110" as="geometry" />
        </mxCell>
        <mxCell id="KVX-xqFQKd0io17M2iUF-2" value="&lt;p style=&quot;margin: 0px ; margin-top: 4px ; text-align: center&quot;&gt;&lt;b&gt;ReservationBook&lt;/b&gt;&lt;br&gt;&lt;/p&gt;&lt;hr size=&quot;1&quot;&gt;&lt;p style=&quot;margin: 0px ; margin-left: 4px&quot;&gt;+ _reservations : List&amp;lt;Reservation&amp;gt;&lt;/p&gt;&lt;hr size=&quot;1&quot;&gt;&lt;p style=&quot;margin: 0px ; margin-left: 4px&quot;&gt;+ GetReservationsForUser(): IEnumerable&amp;lt;Reservation&amp;gt;&lt;/p&gt;&lt;p style=&quot;margin: 0px ; margin-left: 4px&quot;&gt;+&amp;nbsp;AddReservation(Reservation reservation) : void&lt;/p&gt;" style="verticalAlign=top;align=left;overflow=fill;fontSize=12;fontFamily=Helvetica;html=1;" parent="1" vertex="1">
          <mxGeometry x="-430" y="210" width="320" height="90" as="geometry" />
        </mxCell>
        <mxCell id="KVX-xqFQKd0io17M2iUF-3" value="&lt;p style=&quot;margin: 0px ; margin-top: 4px ; text-align: center&quot;&gt;&lt;b&gt;RoomID&lt;/b&gt;&lt;/p&gt;&lt;hr size=&quot;1&quot;&gt;&lt;p style=&quot;margin: 0px ; margin-left: 4px&quot;&gt;+ FloorNumber : int&lt;/p&gt;&lt;p style=&quot;margin: 0px ; margin-left: 4px&quot;&gt;+ RoomNumber : int&lt;/p&gt;&lt;hr size=&quot;1&quot;&gt;&lt;p style=&quot;margin: 0px ; margin-left: 4px&quot;&gt;+ ToStirng : string {override}&lt;/p&gt;&lt;p style=&quot;margin: 0px ; margin-left: 4px&quot;&gt;+ Equals : bool {override}&lt;/p&gt;&lt;p style=&quot;margin: 0px ; margin-left: 4px&quot;&gt;+ GetHashCode : int {override}&lt;/p&gt;&lt;p style=&quot;margin: 0px ; margin-left: 4px&quot;&gt;+ == : bool &amp;lt;static&amp;gt; {operator}&lt;/p&gt;&lt;p style=&quot;margin: 0px ; margin-left: 4px&quot;&gt;+ != : bool &amp;lt;static&amp;gt; {operator}&lt;/p&gt;" style="verticalAlign=top;align=left;overflow=fill;fontSize=12;fontFamily=Helvetica;html=1;" parent="1" vertex="1">
          <mxGeometry x="-1100" y="430" width="190" height="150" as="geometry" />
        </mxCell>
        <mxCell id="KVX-xqFQKd0io17M2iUF-4" value="&lt;p style=&quot;margin: 0px ; margin-top: 4px ; text-align: center&quot;&gt;&lt;b&gt;Reservation&lt;/b&gt;&lt;/p&gt;&lt;hr size=&quot;1&quot;&gt;&lt;p style=&quot;margin: 0px ; margin-left: 4px&quot;&gt;+ RoomID : RoomID&lt;/p&gt;&lt;p style=&quot;margin: 0px ; margin-left: 4px&quot;&gt;+ UserName : string&lt;/p&gt;&lt;p style=&quot;margin: 0px ; margin-left: 4px&quot;&gt;+ StartTime : DateTime&lt;/p&gt;&lt;p style=&quot;margin: 0px ; margin-left: 4px&quot;&gt;+ EndTime : EndTime&lt;/p&gt;&lt;p style=&quot;margin: 0px ; margin-left: 4px&quot;&gt;+ Length : TimeSpan&lt;/p&gt;&lt;hr size=&quot;1&quot;&gt;&lt;p style=&quot;margin: 0px ; margin-left: 4px&quot;&gt;+ Conflicts(Reservation reservation) : bool&lt;/p&gt;" style="verticalAlign=top;align=left;overflow=fill;fontSize=12;fontFamily=Helvetica;html=1;" parent="1" vertex="1">
          <mxGeometry x="-810" y="437.5" width="240" height="135" as="geometry" />
        </mxCell>
        <mxCell id="KVX-xqFQKd0io17M2iUF-5" value="&lt;p style=&quot;margin: 0px ; margin-top: 4px ; text-align: center&quot;&gt;&lt;b&gt;ReservationConflictException&lt;/b&gt;&lt;/p&gt;&lt;hr size=&quot;1&quot;&gt;&lt;p style=&quot;margin: 0px ; margin-left: 4px&quot;&gt;+ ExistReservation : Reservation&lt;/p&gt;&lt;p style=&quot;margin: 0px ; margin-left: 4px&quot;&gt;+ IncomingReservation : Reservation&lt;/p&gt;&lt;hr size=&quot;1&quot;&gt;&lt;p style=&quot;margin: 0px ; margin-left: 4px&quot;&gt;&lt;br&gt;&lt;/p&gt;" style="verticalAlign=top;align=left;overflow=fill;fontSize=12;fontFamily=Helvetica;html=1;" parent="1" vertex="1">
          <mxGeometry x="-380" y="37.5" width="215" height="80" as="geometry" />
        </mxCell>
        <mxCell id="KVX-xqFQKd0io17M2iUF-18" value="Use" style="endArrow=open;endSize=12;dashed=1;html=1;" parent="1" source="KVX-xqFQKd0io17M2iUF-5" target="KVX-xqFQKd0io17M2iUF-2" edge="1">
          <mxGeometry width="160" relative="1" as="geometry">
            <mxPoint x="-240" y="280" as="sourcePoint" />
            <mxPoint x="-80" y="280" as="targetPoint" />
          </mxGeometry>
        </mxCell>
        <mxCell id="KVX-xqFQKd0io17M2iUF-22" value="1" style="endArrow=open;html=1;endSize=12;startArrow=diamondThin;startSize=14;startFill=1;edgeStyle=orthogonalEdgeStyle;align=left;verticalAlign=bottom;" parent="1" source="KVX-xqFQKd0io17M2iUF-2" target="KVX-xqFQKd0io17M2iUF-4" edge="1">
          <mxGeometry x="-0.8192" relative="1" as="geometry">
            <mxPoint x="-540" y="280" as="sourcePoint" />
            <mxPoint x="-380" y="280" as="targetPoint" />
            <mxPoint as="offset" />
          </mxGeometry>
        </mxCell>
        <mxCell id="n4prjoQtgPTEG673dQ9--1" value="&lt;p style=&quot;margin: 0px ; margin-top: 4px ; text-align: center&quot;&gt;&lt;b&gt;App.xaml.cs&lt;/b&gt;&lt;/p&gt;&lt;hr size=&quot;1&quot;&gt;&lt;p style=&quot;margin: 0px ; margin-left: 4px&quot;&gt;- _hotel : Hotel {readonly}&lt;/p&gt;&lt;p style=&quot;margin: 0px ; margin-left: 4px&quot;&gt;- _navigationStore {readonly}&lt;/p&gt;&lt;hr size=&quot;1&quot;&gt;&lt;p style=&quot;margin: 0px ; margin-left: 4px&quot;&gt;- CreateMakeReservationViewModel : MakeReservationViewModel&lt;/p&gt;&lt;p style=&quot;margin: 0px ; margin-left: 4px&quot;&gt;- CreateReservationListingViewModel : ReservationListingViewModel&lt;/p&gt;" style="verticalAlign=top;align=left;overflow=fill;fontSize=12;fontFamily=Helvetica;html=1;" parent="1" vertex="1">
          <mxGeometry x="110" y="450" width="390" height="110" as="geometry" />
        </mxCell>
        <mxCell id="n4prjoQtgPTEG673dQ9--2" value="" style="endArrow=open;endFill=1;endSize=12;html=1;rounded=0;" parent="1" source="n4prjoQtgPTEG673dQ9--1" target="KVX-xqFQKd0io17M2iUF-1" edge="1">
          <mxGeometry width="160" relative="1" as="geometry">
            <mxPoint x="540" y="310" as="sourcePoint" />
            <mxPoint x="700" y="310" as="targetPoint" />
          </mxGeometry>
        </mxCell>
        <mxCell id="n4prjoQtgPTEG673dQ9--3" value="&lt;p style=&quot;margin: 0px ; margin-top: 4px ; text-align: center&quot;&gt;&lt;b&gt;NavigationStore&lt;/b&gt;&lt;/p&gt;&lt;hr size=&quot;1&quot;&gt;&lt;p style=&quot;margin: 0px ; margin-left: 4px&quot;&gt;- _currentViewModel : ViewModelBase&lt;/p&gt;&lt;p style=&quot;margin: 0px ; margin-left: 4px&quot;&gt;+ CurrentViewModel : ViewModelBase&lt;/p&gt;&lt;p style=&quot;margin: 0px ; margin-left: 4px&quot;&gt;+ CurrentViewModelChanged : Action? &amp;lt;event&amp;gt;&lt;/p&gt;&lt;hr size=&quot;1&quot;&gt;&lt;p style=&quot;margin: 0px ; margin-left: 4px&quot;&gt;- OnCurrentViewModelChanged&lt;/p&gt;" style="verticalAlign=top;align=left;overflow=fill;fontSize=12;fontFamily=Helvetica;html=1;" parent="1" vertex="1">
          <mxGeometry x="-310" y="450" width="270" height="110" as="geometry" />
        </mxCell>
        <mxCell id="n4prjoQtgPTEG673dQ9--4" value="" style="endArrow=open;endFill=1;endSize=12;html=1;rounded=0;" parent="1" source="n4prjoQtgPTEG673dQ9--1" target="n4prjoQtgPTEG673dQ9--3" edge="1">
          <mxGeometry width="160" relative="1" as="geometry">
            <mxPoint x="470" y="520" as="sourcePoint" />
            <mxPoint x="630" y="520" as="targetPoint" />
          </mxGeometry>
        </mxCell>
        <mxCell id="n4prjoQtgPTEG673dQ9--6" value="" style="endArrow=open;endFill=1;endSize=12;html=1;rounded=0;" parent="1" source="n4prjoQtgPTEG673dQ9--3" target="n4prjoQtgPTEG673dQ9--5" edge="1">
          <mxGeometry width="160" relative="1" as="geometry">
            <mxPoint x="470" y="520" as="sourcePoint" />
            <mxPoint x="630" y="520" as="targetPoint" />
          </mxGeometry>
        </mxCell>
        <mxCell id="n4prjoQtgPTEG673dQ9--7" value="" style="endArrow=open;endFill=1;endSize=12;html=1;rounded=0;" parent="1" source="KVX-xqFQKd0io17M2iUF-1" target="KVX-xqFQKd0io17M2iUF-2" edge="1">
          <mxGeometry width="160" relative="1" as="geometry">
            <mxPoint x="-380" y="180" as="sourcePoint" />
            <mxPoint x="-320" y="320" as="targetPoint" />
          </mxGeometry>
        </mxCell>
        <mxCell id="n4prjoQtgPTEG673dQ9--8" value="" style="endArrow=open;endFill=1;endSize=12;html=1;rounded=0;" parent="1" source="KVX-xqFQKd0io17M2iUF-4" target="KVX-xqFQKd0io17M2iUF-3" edge="1">
          <mxGeometry width="160" relative="1" as="geometry">
            <mxPoint x="-480" y="320" as="sourcePoint" />
            <mxPoint x="-320" y="320" as="targetPoint" />
          </mxGeometry>
        </mxCell>
        <mxCell id="n4prjoQtgPTEG673dQ9--9" value="&lt;p style=&quot;margin: 0px ; margin-top: 4px ; text-align: center&quot;&gt;&lt;b&gt;NavigationService&lt;/b&gt;&lt;/p&gt;&lt;hr size=&quot;1&quot;&gt;&lt;p style=&quot;margin: 0px ; margin-left: 4px&quot;&gt;- _navigationStore : NavigationStore {readonly}&lt;/p&gt;&lt;p style=&quot;margin: 0px ; margin-left: 4px&quot;&gt;- _createViewModel : Func&amp;lt;ViewModelBase&amp;gt;&lt;/p&gt;&lt;hr size=&quot;1&quot;&gt;&lt;p style=&quot;margin: 0px ; margin-left: 4px&quot;&gt;+ Navigate()&lt;/p&gt;" style="verticalAlign=top;align=left;overflow=fill;fontSize=12;fontFamily=Helvetica;html=1;" parent="1" vertex="1">
          <mxGeometry x="170" y="700" width="270" height="90" as="geometry" />
        </mxCell>
        <mxCell id="n4prjoQtgPTEG673dQ9--11" value="" style="endArrow=open;endFill=1;endSize=12;html=1;rounded=0;" parent="1" source="n4prjoQtgPTEG673dQ9--9" target="n4prjoQtgPTEG673dQ9--3" edge="1">
          <mxGeometry width="160" relative="1" as="geometry">
            <mxPoint x="470" y="720" as="sourcePoint" />
            <mxPoint x="630" y="720" as="targetPoint" />
          </mxGeometry>
        </mxCell>
        <mxCell id="n4prjoQtgPTEG673dQ9--12" value="Use" style="endArrow=open;endSize=12;dashed=1;html=1;rounded=0;" parent="1" source="n4prjoQtgPTEG673dQ9--1" target="n4prjoQtgPTEG673dQ9--9" edge="1">
          <mxGeometry width="160" relative="1" as="geometry">
            <mxPoint x="540" y="710" as="sourcePoint" />
            <mxPoint x="700" y="710" as="targetPoint" />
          </mxGeometry>
        </mxCell>
        <mxCell id="n4prjoQtgPTEG673dQ9--16" value="&lt;p style=&quot;margin: 0px ; margin-top: 4px ; text-align: center&quot;&gt;&lt;b&gt;ReservationListingView&lt;/b&gt;&lt;/p&gt;&lt;hr size=&quot;1&quot;&gt;&lt;div style=&quot;height: 2px&quot;&gt;&lt;/div&gt;" style="verticalAlign=top;align=left;overflow=fill;fontSize=12;fontFamily=Helvetica;html=1;" parent="1" vertex="1">
          <mxGeometry x="-740" y="1120" width="150" height="60" as="geometry" />
        </mxCell>
        <mxCell id="n4prjoQtgPTEG673dQ9--17" value="&lt;p style=&quot;margin: 0px ; margin-top: 4px ; text-align: center&quot;&gt;&lt;br&gt;&lt;b&gt;MainWindow&lt;/b&gt;&lt;/p&gt;" style="verticalAlign=top;align=left;overflow=fill;fontSize=12;fontFamily=Helvetica;html=1;" parent="1" vertex="1">
          <mxGeometry x="-483" y="1275" width="140" height="60" as="geometry" />
        </mxCell>
        <mxCell id="n4prjoQtgPTEG673dQ9--18" value="" style="endArrow=open;endFill=1;endSize=12;html=1;rounded=0;exitX=0;exitY=0.5;exitDx=0;exitDy=0;" parent="1" source="n4prjoQtgPTEG673dQ9--17" target="n4prjoQtgPTEG673dQ9--16" edge="1">
          <mxGeometry width="160" relative="1" as="geometry">
            <mxPoint x="-350" y="1410" as="sourcePoint" />
            <mxPoint x="-190" y="1410" as="targetPoint" />
            <Array as="points">
              <mxPoint x="-665" y="1305" />
            </Array>
          </mxGeometry>
        </mxCell>
        <mxCell id="n4prjoQtgPTEG673dQ9--19" value="" style="endArrow=open;endFill=1;endSize=12;html=1;rounded=0;exitX=1;exitY=0.5;exitDx=0;exitDy=0;" parent="1" source="n4prjoQtgPTEG673dQ9--17" target="n4prjoQtgPTEG673dQ9--21" edge="1">
          <mxGeometry width="160" relative="1" as="geometry">
            <mxPoint x="-350" y="1410" as="sourcePoint" />
            <mxPoint x="-414" y="1190" as="targetPoint" />
            <Array as="points">
              <mxPoint x="-215" y="1305" />
            </Array>
          </mxGeometry>
        </mxCell>
        <mxCell id="n4prjoQtgPTEG673dQ9--20" value="&lt;p style=&quot;margin: 0px ; margin-top: 4px ; text-align: center&quot;&gt;&lt;b&gt;MainViewModel&lt;/b&gt;&lt;/p&gt;&lt;hr size=&quot;1&quot;&gt;&lt;p style=&quot;margin: 0px ; margin-left: 4px&quot;&gt;- _navigationStore : NavigationStore&lt;/p&gt;&lt;p style=&quot;margin: 0px ; margin-left: 4px&quot;&gt;+ CurrentViewModel : ViewModelBase&lt;/p&gt;&lt;hr size=&quot;1&quot;&gt;&lt;p style=&quot;margin: 0px ; margin-left: 4px&quot;&gt;- OnCurrentViewModelChanged()&lt;/p&gt;" style="verticalAlign=top;align=left;overflow=fill;fontSize=12;fontFamily=Helvetica;html=1;" parent="1" vertex="1">
          <mxGeometry x="-523" y="940" width="220" height="90" as="geometry" />
        </mxCell>
        <mxCell id="n4prjoQtgPTEG673dQ9--21" value="&lt;p style=&quot;margin: 0px ; margin-top: 4px ; text-align: center&quot;&gt;&lt;b&gt;MakeReservationView&lt;/b&gt;&lt;br&gt;&lt;/p&gt;&lt;hr size=&quot;1&quot;&gt;&lt;div style=&quot;height: 2px&quot;&gt;&lt;/div&gt;" style="verticalAlign=top;align=left;overflow=fill;fontSize=12;fontFamily=Helvetica;html=1;" parent="1" vertex="1">
          <mxGeometry x="-290" y="1120" width="150" height="60" as="geometry" />
        </mxCell>
        <mxCell id="n4prjoQtgPTEG673dQ9--22" value="Use" style="endArrow=open;endSize=12;dashed=1;html=1;rounded=0;" parent="1" source="n4prjoQtgPTEG673dQ9--20" target="n4prjoQtgPTEG673dQ9--3" edge="1">
          <mxGeometry x="0.1957" width="160" relative="1" as="geometry">
            <mxPoint x="20" y="820" as="sourcePoint" />
            <mxPoint x="180" y="820" as="targetPoint" />
            <Array as="points">
              <mxPoint x="-413" y="505" />
            </Array>
            <mxPoint as="offset" />
          </mxGeometry>
        </mxCell>
        <mxCell id="n4prjoQtgPTEG673dQ9--5" value="&lt;p style=&quot;margin: 0px ; margin-top: 4px ; text-align: center&quot;&gt;&lt;b&gt;ViewModelBase&lt;/b&gt;&lt;/p&gt;&lt;hr size=&quot;1&quot;&gt;&lt;p style=&quot;margin: 0px ; margin-left: 4px&quot;&gt;+ PropertyChanged : PropertyChangedEventHandler? &amp;lt;event&amp;gt;&lt;/p&gt;&lt;hr size=&quot;1&quot;&gt;&lt;p style=&quot;margin: 0px ; margin-left: 4px&quot;&gt;# OnPropertyChanged(string name)&lt;/p&gt;" style="verticalAlign=top;align=left;overflow=fill;fontSize=12;fontFamily=Helvetica;html=1;" parent="1" vertex="1">
          <mxGeometry x="-350" y="700" width="350" height="90" as="geometry" />
        </mxCell>
        <mxCell id="n4prjoQtgPTEG673dQ9--24" value="" style="endArrow=open;endFill=1;endSize=12;html=1;rounded=0;" parent="1" source="n4prjoQtgPTEG673dQ9--17" target="n4prjoQtgPTEG673dQ9--20" edge="1">
          <mxGeometry width="160" relative="1" as="geometry">
            <mxPoint x="-150" y="920" as="sourcePoint" />
            <mxPoint x="10" y="920" as="targetPoint" />
          </mxGeometry>
        </mxCell>
        <mxCell id="n4prjoQtgPTEG673dQ9--25" value="&lt;p style=&quot;margin: 0px ; margin-top: 4px ; text-align: center&quot;&gt;&lt;b&gt;MakeReservationViewModel&lt;/b&gt;&lt;/p&gt;&lt;hr size=&quot;1&quot;&gt;&lt;p style=&quot;margin: 0px ; margin-left: 4px&quot;&gt;+ UserName : string&lt;/p&gt;&lt;p style=&quot;margin: 0px ; margin-left: 4px&quot;&gt;+ RoomNumber : int&lt;/p&gt;&lt;p style=&quot;margin: 0px ; margin-left: 4px&quot;&gt;+ FloorNumber : int&lt;/p&gt;&lt;p style=&quot;margin: 0px ; margin-left: 4px&quot;&gt;+ StartDate : DateTime&lt;/p&gt;&lt;p style=&quot;margin: 0px ; margin-left: 4px&quot;&gt;+ EndDate : DateTime&lt;/p&gt;&lt;p style=&quot;margin: 0px ; margin-left: 4px&quot;&gt;+ SubmitCommand : ICommand&lt;/p&gt;&lt;p style=&quot;margin: 0px ; margin-left: 4px&quot;&gt;+ CancelCommand : ICommand&lt;/p&gt;&lt;hr size=&quot;1&quot;&gt;&lt;p style=&quot;margin: 0px ; margin-left: 4px&quot;&gt;&lt;br&gt;&lt;/p&gt;" style="verticalAlign=top;align=left;overflow=fill;fontSize=12;fontFamily=Helvetica;html=1;" parent="1" vertex="1">
          <mxGeometry x="-180" y="910" width="190" height="150" as="geometry" />
        </mxCell>
        <mxCell id="n4prjoQtgPTEG673dQ9--26" value="" style="endArrow=open;endFill=1;endSize=12;html=1;rounded=0;exitX=1;exitY=0.5;exitDx=0;exitDy=0;" parent="1" source="n4prjoQtgPTEG673dQ9--21" target="n4prjoQtgPTEG673dQ9--25" edge="1">
          <mxGeometry width="160" relative="1" as="geometry">
            <mxPoint x="-150" y="920" as="sourcePoint" />
            <mxPoint x="10" y="920" as="targetPoint" />
            <Array as="points">
              <mxPoint x="-85" y="1150" />
            </Array>
          </mxGeometry>
        </mxCell>
        <mxCell id="n4prjoQtgPTEG673dQ9--27" value="Extends" style="endArrow=block;endSize=16;endFill=0;html=1;rounded=0;entryX=0.75;entryY=1;entryDx=0;entryDy=0;" parent="1" source="n4prjoQtgPTEG673dQ9--25" target="n4prjoQtgPTEG673dQ9--5" edge="1">
          <mxGeometry width="160" relative="1" as="geometry">
            <mxPoint x="-150" y="920" as="sourcePoint" />
            <mxPoint x="10" y="920" as="targetPoint" />
          </mxGeometry>
        </mxCell>
        <mxCell id="n4prjoQtgPTEG673dQ9--28" value="&lt;p style=&quot;margin: 0px ; margin-top: 4px ; text-align: center&quot;&gt;&lt;b&gt;ReservationListingViewModel&lt;/b&gt;&lt;/p&gt;&lt;hr size=&quot;1&quot;&gt;&lt;p style=&quot;margin: 0px ; margin-left: 4px&quot;&gt;- _hotel : Hotel {readonly}&lt;/p&gt;&lt;p style=&quot;margin: 0px ; margin-left: 4px&quot;&gt;- _reservations : ObservableCollection&amp;lt;ReservationViewModel&amp;gt; {readonly}&lt;/p&gt;&lt;p style=&quot;margin: 0px ; margin-left: 4px&quot;&gt;+ Reservations : IEnumable&amp;lt;ReservationViewModel&amp;gt;&lt;/p&gt;&lt;p style=&quot;margin: 0px ; margin-left: 4px&quot;&gt;+ MakeReservationCommand : ICommand&lt;/p&gt;&lt;hr size=&quot;1&quot;&gt;&lt;p style=&quot;margin: 0px ; margin-left: 4px&quot;&gt;- RefreshReservations()&lt;/p&gt;" style="verticalAlign=top;align=left;overflow=fill;fontSize=12;fontFamily=Helvetica;html=1;" parent="1" vertex="1">
          <mxGeometry x="-1010" y="925" width="410" height="120" as="geometry" />
        </mxCell>
        <mxCell id="n4prjoQtgPTEG673dQ9--29" value="" style="endArrow=open;endFill=1;endSize=12;html=1;rounded=0;exitX=0;exitY=0.5;exitDx=0;exitDy=0;" parent="1" source="n4prjoQtgPTEG673dQ9--16" target="n4prjoQtgPTEG673dQ9--28" edge="1">
          <mxGeometry width="160" relative="1" as="geometry">
            <mxPoint x="-150" y="1020" as="sourcePoint" />
            <mxPoint x="10" y="1020" as="targetPoint" />
            <Array as="points">
              <mxPoint x="-805" y="1150" />
            </Array>
          </mxGeometry>
        </mxCell>
        <mxCell id="n4prjoQtgPTEG673dQ9--31" value="&lt;p style=&quot;margin: 0px ; margin-top: 4px ; text-align: center&quot;&gt;&lt;b&gt;ReservationViewModel&lt;/b&gt;&lt;/p&gt;&lt;hr size=&quot;1&quot;&gt;&lt;p style=&quot;margin: 0px ; margin-left: 4px&quot;&gt;- _reservation : Reservation {readonly}&lt;/p&gt;&lt;p style=&quot;margin: 0px ; margin-left: 4px&quot;&gt;+ RoomID : string&lt;/p&gt;&lt;p style=&quot;margin: 0px ; margin-left: 4px&quot;&gt;+ UserName : string&lt;/p&gt;&lt;p style=&quot;margin: 0px ; margin-left: 4px&quot;&gt;+ StartDate : string&lt;/p&gt;&lt;p style=&quot;margin: 0px ; margin-left: 4px&quot;&gt;+ EndDate : stirng&lt;/p&gt;&lt;hr size=&quot;1&quot;&gt;&lt;p style=&quot;margin: 0px ; margin-left: 4px&quot;&gt;&lt;br&gt;&lt;/p&gt;" style="verticalAlign=top;align=left;overflow=fill;fontSize=12;fontFamily=Helvetica;html=1;" parent="1" vertex="1">
          <mxGeometry x="-800" y="685" width="220" height="120" as="geometry" />
        </mxCell>
        <mxCell id="n4prjoQtgPTEG673dQ9--32" value="" style="endArrow=open;endFill=1;endSize=12;html=1;rounded=0;" parent="1" source="n4prjoQtgPTEG673dQ9--31" target="KVX-xqFQKd0io17M2iUF-4" edge="1">
          <mxGeometry width="160" relative="1" as="geometry">
            <mxPoint x="-640" y="820" as="sourcePoint" />
            <mxPoint x="-480" y="820" as="targetPoint" />
          </mxGeometry>
        </mxCell>
        <mxCell id="n4prjoQtgPTEG673dQ9--33" value="Extends" style="endArrow=block;endSize=16;endFill=0;html=1;rounded=0;" parent="1" source="n4prjoQtgPTEG673dQ9--31" target="n4prjoQtgPTEG673dQ9--5" edge="1">
          <mxGeometry x="0.3043" width="160" relative="1" as="geometry">
            <mxPoint x="-640" y="820" as="sourcePoint" />
            <mxPoint x="-480" y="820" as="targetPoint" />
            <mxPoint as="offset" />
          </mxGeometry>
        </mxCell>
        <mxCell id="n4prjoQtgPTEG673dQ9--36" value="Extends" style="endArrow=block;endSize=16;endFill=0;html=1;rounded=0;exitX=0.75;exitY=0;exitDx=0;exitDy=0;entryX=0.25;entryY=1;entryDx=0;entryDy=0;" parent="1" source="n4prjoQtgPTEG673dQ9--28" target="n4prjoQtgPTEG673dQ9--5" edge="1">
          <mxGeometry width="160" relative="1" as="geometry">
            <mxPoint x="-620" y="820" as="sourcePoint" />
            <mxPoint x="-460" y="820" as="targetPoint" />
            <Array as="points">
              <mxPoint x="-702" y="880" />
              <mxPoint x="-262" y="880" />
            </Array>
          </mxGeometry>
        </mxCell>
        <mxCell id="n4prjoQtgPTEG673dQ9--37" value="Extends" style="endArrow=block;endSize=16;endFill=0;html=1;rounded=0;exitX=0.75;exitY=0;exitDx=0;exitDy=0;entryX=0.5;entryY=1;entryDx=0;entryDy=0;" parent="1" source="n4prjoQtgPTEG673dQ9--20" target="n4prjoQtgPTEG673dQ9--5" edge="1">
          <mxGeometry width="160" relative="1" as="geometry">
            <mxPoint x="-620" y="820" as="sourcePoint" />
            <mxPoint x="-460" y="820" as="targetPoint" />
            <Array as="points">
              <mxPoint x="-358" y="900" />
              <mxPoint x="-175" y="900" />
            </Array>
          </mxGeometry>
        </mxCell>
        <mxCell id="7i080NomIUVZjMqJuJ5p-1" value="1" style="endArrow=open;html=1;endSize=12;startArrow=diamondThin;startSize=14;startFill=1;edgeStyle=orthogonalEdgeStyle;align=left;verticalAlign=bottom;rounded=0;exitX=0.25;exitY=0;exitDx=0;exitDy=0;entryX=0;entryY=0.5;entryDx=0;entryDy=0;" edge="1" parent="1" source="n4prjoQtgPTEG673dQ9--28" target="n4prjoQtgPTEG673dQ9--31">
          <mxGeometry x="0.7117" relative="1" as="geometry">
            <mxPoint x="-580" y="620" as="sourcePoint" />
            <mxPoint x="-420" y="620" as="targetPoint" />
            <mxPoint x="1" as="offset" />
          </mxGeometry>
        </mxCell>
        <mxCell id="7i080NomIUVZjMqJuJ5p-2" value="Use" style="endArrow=open;endSize=12;dashed=1;html=1;rounded=0;" edge="1" parent="1" source="n4prjoQtgPTEG673dQ9--9" target="n4prjoQtgPTEG673dQ9--5">
          <mxGeometry width="160" relative="1" as="geometry">
            <mxPoint x="-150" y="780" as="sourcePoint" />
            <mxPoint x="10" y="780" as="targetPoint" />
          </mxGeometry>
        </mxCell>
        <mxCell id="7i080NomIUVZjMqJuJ5p-3" value="&lt;p style=&quot;margin: 0px ; margin-top: 4px ; text-align: center&quot;&gt;&lt;b&gt;CommandBase&lt;/b&gt;&lt;/p&gt;&lt;hr size=&quot;1&quot;&gt;&lt;p style=&quot;margin: 0px ; margin-left: 4px&quot;&gt;+ CanExecuteChanged : EventHandler&lt;/p&gt;&lt;hr size=&quot;1&quot;&gt;&lt;p style=&quot;margin: 0px ; margin-left: 4px&quot;&gt;+ CanExeute(object? parameter) {virtual}&lt;/p&gt;&lt;p style=&quot;margin: 0px ; margin-left: 4px&quot;&gt;+ Execute(object? parameter) {abstract}&lt;/p&gt;&lt;p style=&quot;margin: 0px ; margin-left: 4px&quot;&gt;# OnCanExecutedChanged()&lt;/p&gt;" style="verticalAlign=top;align=left;overflow=fill;fontSize=12;fontFamily=Helvetica;html=1;" vertex="1" parent="1">
          <mxGeometry x="190" y="1250" width="230" height="110" as="geometry" />
        </mxCell>
        <mxCell id="7i080NomIUVZjMqJuJ5p-4" value="&lt;p style=&quot;margin: 0px ; margin-top: 4px ; text-align: center&quot;&gt;&lt;b&gt;MakeReservationCommand&lt;/b&gt;&lt;/p&gt;&lt;hr size=&quot;1&quot;&gt;&lt;p style=&quot;margin: 0px ; margin-left: 4px&quot;&gt;- _hotel : Hotel {readonly}&lt;/p&gt;&lt;p style=&quot;margin: 0px ; margin-left: 4px&quot;&gt;- _reservationViewNavigationService : NavigationService {readonly}&lt;/p&gt;&lt;p style=&quot;margin: 0px ; margin-left: 4px&quot;&gt;- _makeReservationViewModel : MakeReservation {readonly}&lt;/p&gt;&lt;hr size=&quot;1&quot;&gt;&lt;p style=&quot;margin: 0px ; margin-left: 4px&quot;&gt;- OnViewModelPropertyChanged(object? sender, PropertyChnagedEventArgs e)&lt;/p&gt;&lt;p style=&quot;margin: 0px ; margin-left: 4px&quot;&gt;+ CanExecute(object? parameter) : bool &amp;lt;override&amp;gt;&lt;/p&gt;&lt;p style=&quot;margin: 0px ; margin-left: 4px&quot;&gt;+ Execute(object? parameter)&lt;/p&gt;" style="verticalAlign=top;align=left;overflow=fill;fontSize=12;fontFamily=Helvetica;html=1;" vertex="1" parent="1">
          <mxGeometry x="115" y="915" width="380" height="140" as="geometry" />
        </mxCell>
        <mxCell id="7i080NomIUVZjMqJuJ5p-5" value="Extends" style="endArrow=block;endSize=16;endFill=0;html=1;rounded=0;" edge="1" parent="1" source="7i080NomIUVZjMqJuJ5p-4" target="7i080NomIUVZjMqJuJ5p-3">
          <mxGeometry width="160" relative="1" as="geometry">
            <mxPoint x="-10" y="1160" as="sourcePoint" />
            <mxPoint x="150" y="1160" as="targetPoint" />
          </mxGeometry>
        </mxCell>
        <mxCell id="7i080NomIUVZjMqJuJ5p-6" value="" style="endArrow=open;endFill=1;endSize=12;html=1;rounded=0;" edge="1" parent="1" source="7i080NomIUVZjMqJuJ5p-4" target="n4prjoQtgPTEG673dQ9--25">
          <mxGeometry width="160" relative="1" as="geometry">
            <mxPoint x="-10" y="1160" as="sourcePoint" />
            <mxPoint x="150" y="1160" as="targetPoint" />
          </mxGeometry>
        </mxCell>
        <mxCell id="7i080NomIUVZjMqJuJ5p-7" value="&lt;p style=&quot;margin: 0px ; margin-top: 4px ; text-align: center&quot;&gt;&lt;b&gt;NavigateCommand&lt;/b&gt;&lt;/p&gt;&lt;hr size=&quot;1&quot;&gt;&lt;p style=&quot;margin: 0px ; margin-left: 4px&quot;&gt;- _navigationService : NavigationService {readonly}&lt;/p&gt;&lt;hr size=&quot;1&quot;&gt;&lt;p style=&quot;margin: 0px ; margin-left: 4px&quot;&gt;+ Execute(object? parameter) &amp;lt;override&amp;gt;&lt;/p&gt;" style="verticalAlign=top;align=left;overflow=fill;fontSize=12;fontFamily=Helvetica;html=1;" vertex="1" parent="1">
          <mxGeometry x="560" y="915" width="290" height="90" as="geometry" />
        </mxCell>
        <mxCell id="7i080NomIUVZjMqJuJ5p-8" value="Extends" style="endArrow=block;endSize=16;endFill=0;html=1;rounded=0;entryX=1;entryY=0.5;entryDx=0;entryDy=0;" edge="1" parent="1" source="7i080NomIUVZjMqJuJ5p-7" target="7i080NomIUVZjMqJuJ5p-3">
          <mxGeometry width="160" relative="1" as="geometry">
            <mxPoint x="340" y="1160" as="sourcePoint" />
            <mxPoint x="500" y="1160" as="targetPoint" />
            <Array as="points">
              <mxPoint x="705" y="1305" />
            </Array>
          </mxGeometry>
        </mxCell>
        <mxCell id="7i080NomIUVZjMqJuJ5p-9" value="" style="endArrow=open;endFill=1;endSize=12;html=1;rounded=0;" edge="1" parent="1" source="7i080NomIUVZjMqJuJ5p-7" target="n4prjoQtgPTEG673dQ9--9">
          <mxGeometry width="160" relative="1" as="geometry">
            <mxPoint x="340" y="780" as="sourcePoint" />
            <mxPoint x="680" y="790" as="targetPoint" />
            <Array as="points">
              <mxPoint x="705" y="745" />
            </Array>
          </mxGeometry>
        </mxCell>
        <mxCell id="7i080NomIUVZjMqJuJ5p-10" value="" style="endArrow=open;endFill=1;endSize=12;html=1;rounded=0;exitX=0.5;exitY=0;exitDx=0;exitDy=0;" edge="1" parent="1" source="7i080NomIUVZjMqJuJ5p-4" target="n4prjoQtgPTEG673dQ9--9">
          <mxGeometry width="160" relative="1" as="geometry">
            <mxPoint x="340" y="910" as="sourcePoint" />
            <mxPoint x="500" y="910" as="targetPoint" />
          </mxGeometry>
        </mxCell>
      </root>
    </mxGraphModel>
  </diagram>
</mxfile>
